<?xml version="1.0" encoding="UTF-8" standalone="no"?>
<svg
   xmlns:dc="http://purl.org/dc/elements/1.1/"
   xmlns:cc="http://creativecommons.org/ns#"
   xmlns:rdf="http://www.w3.org/1999/02/22-rdf-syntax-ns#"
   xmlns:svg="http://www.w3.org/2000/svg"
   xmlns="http://www.w3.org/2000/svg"
   xmlns:sodipodi="http://sodipodi.sourceforge.net/DTD/sodipodi-0.dtd"
   xmlns:inkscape="http://www.inkscape.org/namespaces/inkscape"
   version="1.1"
   id="svg1163"
   xml:space="preserve"
   width="533.33508"
   height="1386.6489"
   viewBox="0 0 533.33508 1386.6489"
   sodipodi:docname="mapping.svg"
   inkscape:version="1.0.1 (3bc2e813f5, 2020-09-07)"><metadata
     id="metadata1169"><rdf:RDF><cc:Work
         rdf:about=""><dc:format>image/svg+xml</dc:format><dc:type
           rdf:resource="http://purl.org/dc/dcmitype/StillImage" /><dc:title></dc:title></cc:Work></rdf:RDF></metadata><defs
     id="defs1167" /><sodipodi:namedview
     pagecolor="#ffffff"
     bordercolor="#666666"
     borderopacity="1"
     objecttolerance="10"
     gridtolerance="10"
     guidetolerance="10"
     inkscape:pageopacity="0"
     inkscape:pageshadow="2"
     inkscape:window-width="2560"
     inkscape:window-height="1376"
     id="namedview1165"
     showgrid="false"
     fit-margin-top="0"
     fit-margin-left="0"
     fit-margin-right="0"
     fit-margin-bottom="0"
     inkscape:zoom="0.56927708"
     inkscape:cx="266.72221"
     inkscape:cy="633.15067"
     inkscape:window-x="0"
     inkscape:window-y="0"
     inkscape:window-maximized="1"
     inkscape:current-layer="g1171" /><g
     id="g1171"
     inkscape:groupmode="layer"
     inkscape:label="mapping"
     transform="matrix(1.3333333,0,0,1.3333333,-131.94444,-252.18263)"><g
       id="g1173"><path
         d="m 125,1027.051 c 0,0 175,0 175,0 12.5,0 25,-12.5 25,-25 0,0 0,-729.133 0,-729.133 0,-12.5 -12.5,-25 -25,-25 0,0 -175,0 -175,0 -12.5,0 -25,12.5 -25,25 0,0 0,729.133 0,729.133 0,12.5 12.5,25 25,25"
         style="fill:#f2f2f2;fill-opacity:1;fill-rule:nonzero;stroke:none"
         id="path1175" /><g
         id="g1177"><path
           d="m 125,1027.051 c 0,0 175,0 175,0 12.5,0 25,-12.5 25,-25 0,0 0,-729.133 0,-729.133 0,-12.5 -12.5,-25 -25,-25 0,0 -175,0 -175,0 -12.5,0 -25,12.5 -25,25 0,0 0,729.133 0,729.133 0,12.5 12.5,25 25,25"
           style="fill:none;stroke:#f2f2f2;stroke-width:2.08333;stroke-linecap:butt;stroke-linejoin:miter;stroke-miterlimit:10;stroke-dasharray:none;stroke-opacity:1"
           id="path1179" /></g><text
         transform="translate(202.08203,279.58203)"
         style="font-variant:normal;font-weight:normal;font-size:29.1672px;font-family:'DejaVu Sans';-inkscape-font-specification:DejaVuSans;writing-mode:lr-tb;fill:#000000;fill-opacity:1;fill-rule:nonzero;stroke:none"
         id="text1183"><tspan
           x="0"
           y="0"
           id="tspan1181">p</tspan></text><path
         d="m 366.668,1228.082 c 0,0 106.25,0 106.25,0 12.5,0 25,-12.5 25,-25 0,0 0,-930.164 0,-930.164 0,-12.5 -12.5,-25 -25,-25 0,0 -106.25,0 -106.25,0 -12.5,0 -25,12.5 -25,25 0,0 0,930.164 0,930.164 0,12.5 12.5,25 25,25"
         style="fill:#f2f2f2;fill-opacity:1;fill-rule:nonzero;stroke:none"
         id="path1185" /><g
         id="g1187"><path
           d="m 366.668,1228.082 c 0,0 106.25,0 106.25,0 12.5,0 25,-12.5 25,-25 0,0 0,-930.164 0,-930.164 0,-12.5 -12.5,-25 -25,-25 0,0 -106.25,0 -106.25,0 -12.5,0 -25,12.5 -25,25 0,0 0,930.164 0,930.164 0,12.5 12.5,25 25,25"
           style="fill:none;stroke:#f2f2f2;stroke-width:2.08333;stroke-linecap:butt;stroke-linejoin:miter;stroke-miterlimit:10;stroke-dasharray:none;stroke-opacity:1"
           id="path1189" /></g><text
         transform="translate(409.375,279.58203)"
         style="font-variant:normal;font-weight:normal;font-size:29.1672px;font-family:'DejaVu Sans';-inkscape-font-specification:DejaVuSans;writing-mode:lr-tb;fill:#000000;fill-opacity:1;fill-rule:nonzero;stroke:none"
         id="text1193"><tspan
           x="0"
           y="0"
           id="tspan1191">q</tspan></text><g
         id="g1195"><path
           d="m 308.332,359.891 c 0,26.464 -21.453,47.914 -47.914,47.914 -26.465,0 -47.914,-21.45 -47.914,-47.914 0,-26.461 21.449,-47.914 47.914,-47.914 26.461,0 47.914,21.453 47.914,47.914"
           style="fill:#b3b3b3;fill-opacity:1;fill-rule:nonzero;stroke:#000000;stroke-width:2.08333;stroke-linecap:butt;stroke-linejoin:miter;stroke-miterlimit:10;stroke-dasharray:none;stroke-opacity:1"
           id="path1197" /></g><text
         transform="translate(240.625,367.60156)"
         style="font-variant:normal;font-weight:normal;font-size:29.1672px;font-family:'DejaVu Sans';-inkscape-font-specification:DejaVuSans;writing-mode:lr-tb;fill:#000000;fill-opacity:1;fill-rule:nonzero;stroke:none"
         id="text1201"><tspan
           x="0 18.725327"
           y="0"
           sodipodi:role="line"
           id="tspan1199">p1</tspan></text><g
         id="g1203"><path
           d="m 329.988,189.535 c -11.902,28.785 -29.426,71.176 -43.91,106.203"
           style="fill:none;stroke:#000000;stroke-width:2.08333;stroke-linecap:butt;stroke-linejoin:miter;stroke-miterlimit:10;stroke-dasharray:none;stroke-opacity:1"
           id="path1205" /></g><g
         id="g1207"><path
           d="m 292.668,298.891 -14.699,16.464 1.222,-22.039 z"
           style="fill:#000000;fill-opacity:1;fill-rule:nonzero;stroke:#000000;stroke-width:2.08333;stroke-linecap:butt;stroke-linejoin:miter;stroke-miterlimit:10;stroke-dasharray:none;stroke-opacity:1"
           id="path1209" /></g><g
         id="g1211"><path
           d="m 454.164,359.891 c 0,26.464 -21.453,47.914 -47.914,47.914 -26.461,0 -47.914,-21.45 -47.914,-47.914 0,-26.461 21.453,-47.914 47.914,-47.914 26.461,0 47.914,21.453 47.914,47.914"
           style="fill:#b3b3b3;fill-opacity:1;fill-rule:nonzero;stroke:#000000;stroke-width:2.08333;stroke-linecap:butt;stroke-linejoin:miter;stroke-miterlimit:10;stroke-dasharray:none;stroke-opacity:1"
           id="path1213" /></g><text
         transform="translate(386.45703,367.60156)"
         style="font-variant:normal;font-weight:normal;font-size:29.1672px;font-family:'DejaVu Sans';-inkscape-font-specification:DejaVuSans;writing-mode:lr-tb;fill:#000000;fill-opacity:1;fill-rule:nonzero;stroke:none"
         id="text1217"><tspan
           x="0 18.725327"
           y="0"
           sodipodi:role="line"
           id="tspan1215">q1</tspan></text><g
         id="g1219"><path
           d="m 354.352,190.441 c 8.769,28.278 21.46,69.207 32.097,103.516"
           style="fill:none;stroke:#000000;stroke-width:2.08333;stroke-linecap:butt;stroke-linejoin:miter;stroke-miterlimit:10;stroke-dasharray:none;stroke-opacity:1"
           id="path1221" /></g><g
         id="g1223"><path
           d="m 393.551,292.23 -0.797,22.059 -13.133,-17.738 z"
           style="fill:#000000;fill-opacity:1;fill-rule:nonzero;stroke:#000000;stroke-width:2.08333;stroke-linecap:butt;stroke-linejoin:miter;stroke-miterlimit:10;stroke-dasharray:none;stroke-opacity:1"
           id="path1225" /></g><g
         id="g1227"><path
           d="m 308.332,560.926 c 0,26.461 -21.453,47.914 -47.914,47.914 -26.465,0 -47.914,-21.453 -47.914,-47.914 0,-26.465 21.449,-47.914 47.914,-47.914 26.461,0 47.914,21.449 47.914,47.914"
           style="fill:#b3b3b3;fill-opacity:1;fill-rule:nonzero;stroke:#000000;stroke-width:2.08333;stroke-linecap:butt;stroke-linejoin:miter;stroke-miterlimit:10;stroke-dasharray:none;stroke-opacity:1"
           id="path1229" /></g><text
         transform="translate(240.625,568.63281)"
         style="font-variant:normal;font-weight:normal;font-size:29.1672px;font-family:'DejaVu Sans';-inkscape-font-specification:DejaVuSans;writing-mode:lr-tb;fill:#000000;fill-opacity:1;fill-rule:nonzero;stroke:none"
         id="text1233"><tspan
           x="0 18.725327"
           y="0"
           sodipodi:role="line"
           id="tspan1231">p2</tspan></text><g
         id="g1235"><path
           d="m 260.418,407.637 c 0,25.093 0,56.687 0,84.496"
           style="fill:none;stroke:#57ab27;stroke-width:4.16667;stroke-linecap:butt;stroke-linejoin:miter;stroke-miterlimit:10;stroke-dasharray:none;stroke-opacity:1"
           id="path1237" /></g><g
         id="g1239"><path
           d="m 267.707,492.598 -7.289,20.832 -7.293,-20.832 z"
           style="fill:#57ab27;fill-opacity:1;fill-rule:nonzero;stroke:#57ab27;stroke-width:4.16667;stroke-linecap:butt;stroke-linejoin:miter;stroke-miterlimit:10;stroke-dasharray:none;stroke-opacity:1"
           id="path1241" /></g><text
         transform="translate(260.41797,468.11719)"
         style="font-variant:normal;font-weight:normal;font-size:29.1672px;font-family:'DejaVu Sans';-inkscape-font-specification:DejaVuSans;writing-mode:lr-tb;fill:#000000;fill-opacity:1;fill-rule:nonzero;stroke:none"
         id="text1245"><tspan
           x="0"
           y="0"
           id="tspan1243">A</tspan></text><g
         id="g1247"><path
           d="m 212.496,761.957 c 0,26.465 -21.449,47.914 -47.914,47.914 -26.461,0 -47.914,-21.449 -47.914,-47.914 0,-26.461 21.453,-47.914 47.914,-47.914 26.465,0 47.914,21.453 47.914,47.914"
           style="fill:#b3b3b3;fill-opacity:1;fill-rule:nonzero;stroke:#000000;stroke-width:2.08333;stroke-linecap:butt;stroke-linejoin:miter;stroke-miterlimit:10;stroke-dasharray:none;stroke-opacity:1"
           id="path1249" /></g><text
         transform="translate(144.79297,769.66797)"
         style="font-variant:normal;font-weight:normal;font-size:29.1672px;font-family:'DejaVu Sans';-inkscape-font-specification:DejaVuSans;writing-mode:lr-tb;fill:#000000;fill-opacity:1;fill-rule:nonzero;stroke:none"
         id="text1253"><tspan
           x="0 18.725327"
           y="0"
           sodipodi:role="line"
           id="tspan1251">p3</tspan></text><g
         id="g1255"><path
           d="m 240.094,604.758 c -13.434,27.59 -31.25,64.195 -46.207,94.918"
           style="fill:none;stroke:#cc071e;stroke-width:4.16667;stroke-linecap:butt;stroke-linejoin:miter;stroke-miterlimit:10;stroke-dasharray:none;stroke-opacity:1"
           id="path1257" /></g><g
         id="g1259"><path
           d="m 200.223,703.32 -15.672,15.539 2.562,-21.921 z"
           style="fill:#cc071e;fill-opacity:1;fill-rule:nonzero;stroke:#cc071e;stroke-width:4.16667;stroke-linecap:butt;stroke-linejoin:miter;stroke-miterlimit:10;stroke-dasharray:none;stroke-opacity:1"
           id="path1261" /></g><text
         transform="translate(216.66797,669.14844)"
         style="font-variant:normal;font-weight:normal;font-size:29.1672px;font-family:'DejaVu Sans';-inkscape-font-specification:DejaVuSans;writing-mode:lr-tb;fill:#000000;fill-opacity:1;fill-rule:nonzero;stroke:none"
         id="text1265"><tspan
           x="0"
           y="0"
           id="tspan1263">C</tspan></text><g
         id="g1267"><path
           d="m 283.332,962.992 c 0,26.461 -21.453,47.914 -47.914,47.914 -26.465,0 -47.914,-21.453 -47.914,-47.914 0,-26.465 21.449,-47.914 47.914,-47.914 26.461,0 47.914,21.449 47.914,47.914"
           style="fill:#b3b3b3;fill-opacity:1;fill-rule:nonzero;stroke:#000000;stroke-width:2.08333;stroke-linecap:butt;stroke-linejoin:miter;stroke-miterlimit:10;stroke-dasharray:none;stroke-opacity:1"
           id="path1269" /></g><text
         transform="translate(215.625,970.69922)"
         style="font-variant:normal;font-weight:normal;font-size:29.1672px;font-family:'DejaVu Sans';-inkscape-font-specification:DejaVuSans;writing-mode:lr-tb;fill:#000000;fill-opacity:1;fill-rule:nonzero;stroke:none"
         id="text1273"><tspan
           x="0 18.725327"
           y="0"
           sodipodi:role="line"
           id="tspan1271">p4</tspan></text><g
         id="g1275"><path
           d="m 257.551,608.652 c -4.399,69.973 -12.828,204.137 -17.918,285.18"
           style="fill:none;stroke:#f6a800;stroke-width:4.16667;stroke-linecap:butt;stroke-linejoin:miter;stroke-miterlimit:10;stroke-dasharray:none;stroke-opacity:1"
           id="path1277" /></g><g
         id="g1279"><path
           d="m 246.875,894.852 -8.586,20.332 -5.969,-21.25 z"
           style="fill:#f6a800;fill-opacity:1;fill-rule:nonzero;stroke:#f6a800;stroke-width:4.16667;stroke-linecap:butt;stroke-linejoin:miter;stroke-miterlimit:10;stroke-dasharray:none;stroke-opacity:1"
           id="path1281" /></g><text
         transform="translate(250,769.66797)"
         style="font-variant:normal;font-weight:normal;font-size:29.1672px;font-family:'DejaVu Sans';-inkscape-font-specification:DejaVuSans;writing-mode:lr-tb;fill:#000000;fill-opacity:1;fill-rule:nonzero;stroke:none"
         id="text1285"><tspan
           x="0"
           y="0"
           id="tspan1283">B</tspan></text><g
         id="g1287"><path
           d="m 180.305,807.734 c 9.511,26.434 21.8,60.59 32.359,89.942"
           style="fill:none;stroke:#000000;stroke-width:2.08333;stroke-linecap:butt;stroke-linejoin:miter;stroke-miterlimit:10;stroke-dasharray:none;stroke-opacity:1"
           id="path1289" /></g><g
         id="g1291"><path
           d="m 219.793,895.945 0.191,22.071 -13.914,-17.133 z"
           style="fill:#000000;fill-opacity:1;fill-rule:nonzero;stroke:#000000;stroke-width:2.08333;stroke-linecap:butt;stroke-linejoin:miter;stroke-miterlimit:10;stroke-dasharray:none;stroke-opacity:1"
           id="path1293" /></g><text
         transform="translate(204.16797,870.18359)"
         style="font-variant:normal;font-weight:normal;font-size:29.1672px;font-family:'DejaVu Sans';-inkscape-font-specification:DejaVuSans;writing-mode:lr-tb;fill:#000000;fill-opacity:1;fill-rule:nonzero;stroke:none"
         id="text1297"><tspan
           x="0"
           y="0"
           id="tspan1295">Z</tspan></text><g
         id="g1299"><path
           d="m 454.164,560.926 c 0,26.461 -21.453,47.914 -47.914,47.914 -26.461,0 -47.914,-21.453 -47.914,-47.914 0,-26.465 21.453,-47.914 47.914,-47.914 26.461,0 47.914,21.449 47.914,47.914"
           style="fill:#b3b3b3;fill-opacity:1;fill-rule:nonzero;stroke:#000000;stroke-width:2.08333;stroke-linecap:butt;stroke-linejoin:miter;stroke-miterlimit:10;stroke-dasharray:none;stroke-opacity:1"
           id="path1301" /></g><text
         transform="translate(386.45703,568.63281)"
         style="font-variant:normal;font-weight:normal;font-size:29.1672px;font-family:'DejaVu Sans';-inkscape-font-specification:DejaVuSans;writing-mode:lr-tb;fill:#000000;fill-opacity:1;fill-rule:nonzero;stroke:none"
         id="text1305"><tspan
           x="0 18.725327"
           y="0"
           sodipodi:role="line"
           id="tspan1303">q2</tspan></text><g
         id="g1307"><path
           d="m 406.25,407.637 c 0,25.093 0,56.687 0,84.496"
           style="fill:none;stroke:#000000;stroke-width:2.08333;stroke-linecap:butt;stroke-linejoin:miter;stroke-miterlimit:10;stroke-dasharray:none;stroke-opacity:1"
           id="path1309" /></g><g
         id="g1311"><path
           d="m 413.543,492.598 -7.293,20.832 -7.293,-20.832 z"
           style="fill:#000000;fill-opacity:1;fill-rule:nonzero;stroke:#000000;stroke-width:2.08333;stroke-linecap:butt;stroke-linejoin:miter;stroke-miterlimit:10;stroke-dasharray:none;stroke-opacity:1"
           id="path1313" /></g><text
         transform="translate(406.25,468.11719)"
         style="font-variant:normal;font-weight:normal;font-size:29.1672px;font-family:'DejaVu Sans';-inkscape-font-specification:DejaVuSans;writing-mode:lr-tb;fill:#000000;fill-opacity:1;fill-rule:nonzero;stroke:none"
         id="text1317"><tspan
           x="0"
           y="0"
           id="tspan1315">x</tspan></text><g
         id="g1319"><path
           d="m 454.164,761.957 c 0,26.465 -21.453,47.914 -47.914,47.914 -26.461,0 -47.914,-21.449 -47.914,-47.914 0,-26.461 21.453,-47.914 47.914,-47.914 26.461,0 47.914,21.453 47.914,47.914"
           style="fill:#b3b3b3;fill-opacity:1;fill-rule:nonzero;stroke:#000000;stroke-width:2.08333;stroke-linecap:butt;stroke-linejoin:miter;stroke-miterlimit:10;stroke-dasharray:none;stroke-opacity:1"
           id="path1321" /></g><text
         transform="translate(386.45703,769.66797)"
         style="font-variant:normal;font-weight:normal;font-size:29.1672px;font-family:'DejaVu Sans';-inkscape-font-specification:DejaVuSans;writing-mode:lr-tb;fill:#000000;fill-opacity:1;fill-rule:nonzero;stroke:none"
         id="text1325"><tspan
           x="0 18.725327"
           y="0"
           sodipodi:role="line"
           id="tspan1323">q3</tspan></text><g
         id="g1327"><path
           d="m 406.25,608.668 c 0,25.098 0,56.687 0,84.5"
           style="fill:none;stroke:#57ab27;stroke-width:4.16667;stroke-linecap:butt;stroke-linejoin:miter;stroke-miterlimit:10;stroke-dasharray:none;stroke-opacity:1"
           id="path1329" /></g><g
         id="g1331"><path
           d="m 413.543,693.629 -7.293,20.832 -7.293,-20.832 z"
           style="fill:#57ab27;fill-opacity:1;fill-rule:nonzero;stroke:#57ab27;stroke-width:4.16667;stroke-linecap:butt;stroke-linejoin:miter;stroke-miterlimit:10;stroke-dasharray:none;stroke-opacity:1"
           id="path1333" /></g><text
         transform="translate(406.25,669.14844)"
         style="font-variant:normal;font-weight:normal;font-size:29.1672px;font-family:'DejaVu Sans';-inkscape-font-specification:DejaVuSans;writing-mode:lr-tb;fill:#000000;fill-opacity:1;fill-rule:nonzero;stroke:none"
         id="text1337"><tspan
           x="0"
           y="0"
           id="tspan1335">a</tspan></text><g
         id="g1339"><path
           d="m 466.664,962.992 c 0,26.461 -21.453,47.914 -47.914,47.914 -26.461,0 -47.914,-21.453 -47.914,-47.914 0,-26.465 21.453,-47.914 47.914,-47.914 26.461,0 47.914,21.449 47.914,47.914"
           style="fill:#b3b3b3;fill-opacity:1;fill-rule:nonzero;stroke:#000000;stroke-width:2.08333;stroke-linecap:butt;stroke-linejoin:miter;stroke-miterlimit:10;stroke-dasharray:none;stroke-opacity:1"
           id="path1341" /></g><text
         transform="translate(398.95703,970.69922)"
         style="font-variant:normal;font-weight:normal;font-size:29.1672px;font-family:'DejaVu Sans';-inkscape-font-specification:DejaVuSans;writing-mode:lr-tb;fill:#000000;fill-opacity:1;fill-rule:nonzero;stroke:none"
         id="text1345"><tspan
           x="0 18.725327"
           y="0"
           sodipodi:role="line"
           id="tspan1343">q4</tspan></text><g
         id="g1347"><path
           d="m 398.895,809.105 c -2.387,21.016 -3.786,46.336 -0.977,68.997 0.734,5.929 1.754,12.046 2.949,18.14"
           style="fill:none;stroke:#f6a800;stroke-width:4.16667;stroke-linecap:butt;stroke-linejoin:miter;stroke-miterlimit:10;stroke-dasharray:none;stroke-opacity:1"
           id="path1349" /></g><g
         id="g1351"><path
           d="m 407.988,894.668 -2.523,21.926 -11.703,-18.715 z"
           style="fill:#f6a800;fill-opacity:1;fill-rule:nonzero;stroke:#f6a800;stroke-width:4.16667;stroke-linecap:butt;stroke-linejoin:miter;stroke-miterlimit:10;stroke-dasharray:none;stroke-opacity:1"
           id="path1353" /></g><text
         transform="translate(397.91797,870.18359)"
         style="font-variant:normal;font-weight:normal;font-size:29.1672px;font-family:'DejaVu Sans';-inkscape-font-specification:DejaVuSans;writing-mode:lr-tb;fill:#000000;fill-opacity:1;fill-rule:nonzero;stroke:none"
         id="text1357"><tspan
           x="0"
           y="0"
           id="tspan1355">b</tspan></text><g
         id="g1359"><path
           d="m 414.359,809.461 c 1.817,12.109 3.477,25.211 4.391,37.391 1.148,15.296 1.602,31.785 1.676,47.339"
           style="fill:none;stroke:#cc071e;stroke-width:4.16667;stroke-linecap:butt;stroke-linejoin:miter;stroke-miterlimit:10;stroke-dasharray:none;stroke-opacity:1"
           id="path1361" /></g><g
         id="g1363"><path
           d="m 427.715,894.547 -7.406,20.793 -7.176,-20.875 z"
           style="fill:#cc071e;fill-opacity:1;fill-rule:nonzero;stroke:#cc071e;stroke-width:4.16667;stroke-linecap:butt;stroke-linejoin:miter;stroke-miterlimit:10;stroke-dasharray:none;stroke-opacity:1"
           id="path1365" /></g><text
         transform="translate(418.75,870.18359)"
         style="font-variant:normal;font-weight:normal;font-size:29.1672px;font-family:'DejaVu Sans';-inkscape-font-specification:DejaVuSans;writing-mode:lr-tb;fill:#000000;fill-opacity:1;fill-rule:nonzero;stroke:none"
         id="text1369"><tspan
           x="0"
           y="0"
           id="tspan1367">c</tspan></text><g
         id="g1371"><path
           d="m 466.664,1164.023 c 0,26.465 -21.453,47.915 -47.914,47.915 -26.461,0 -47.914,-21.45 -47.914,-47.915 0,-26.461 21.453,-47.914 47.914,-47.914 26.461,0 47.914,21.453 47.914,47.914"
           style="fill:#b3b3b3;fill-opacity:1;fill-rule:nonzero;stroke:#000000;stroke-width:2.08333;stroke-linecap:butt;stroke-linejoin:miter;stroke-miterlimit:10;stroke-dasharray:none;stroke-opacity:1"
           id="path1373" /></g><text
         transform="translate(398.95703,1171.7344)"
         style="font-variant:normal;font-weight:normal;font-size:29.1672px;font-family:'DejaVu Sans';-inkscape-font-specification:DejaVuSans;writing-mode:lr-tb;fill:#000000;fill-opacity:1;fill-rule:nonzero;stroke:none"
         id="text1377"><tspan
           x="0 18.725327"
           y="0"
           sodipodi:role="line"
           id="tspan1375">q5</tspan></text><g
         id="g1379"><path
           d="m 418.75,1010.734 c 0,25.098 0,56.688 0,84.5"
           style="fill:none;stroke:#000000;stroke-width:2.08333;stroke-linecap:butt;stroke-linejoin:miter;stroke-miterlimit:10;stroke-dasharray:none;stroke-opacity:1"
           id="path1381" /></g><g
         id="g1383"><path
           d="m 426.043,1095.695 -7.293,20.832 -7.293,-20.832 z"
           style="fill:#000000;fill-opacity:1;fill-rule:nonzero;stroke:#000000;stroke-width:2.08333;stroke-linecap:butt;stroke-linejoin:miter;stroke-miterlimit:10;stroke-dasharray:none;stroke-opacity:1"
           id="path1385" /></g><text
         transform="translate(418.75,1071.2148)"
         style="font-variant:normal;font-weight:normal;font-size:29.1672px;font-family:'DejaVu Sans';-inkscape-font-specification:DejaVuSans;writing-mode:lr-tb;fill:#000000;fill-opacity:1;fill-rule:nonzero;stroke:none"
         id="text1389"><tspan
           x="0"
           y="0"
           id="tspan1387">y</tspan></text></g></g></svg>
